<?xml version="1.0" encoding="UTF-8" standalone="no"?>
<svg width="130px" height="130px" viewBox="0 0 130 130" version="1.1" xmlns="http://www.w3.org/2000/svg" xmlns:xlink="http://www.w3.org/1999/xlink">
    <!-- Generator: Sketch 3.6.1 (26313) - http://www.bohemiancoding.com/sketch -->
    <title>pg_logo</title>
    <desc>Created with Sketch.</desc>
    <defs></defs>
    <g id="Page-1" stroke="none" stroke-width="1" fill="none" fill-rule="evenodd">
        <g id="pg_logo">
            <g id="Group" transform="translate(4.000000, 2.000000)">
                <path d="M114.269,80.396 L107.229,88.89 C106.118,90.233 103.491,90.773 101.939,89.974 L80.791,79.097 C80.739,79.071 80.691,79.043 80.645,79.019 C80.69,78.992 80.738,78.965 80.79,78.937 L98.746,69.311 C100.613,68.31 104.384,68.304 106.259,69.29 L108.227,70.336 C110.67,71.635 113.915,74.242 115.171,75.915 C115.703,76.624 115.615,78.772 114.269,80.396 L114.269,80.396 Z M84.639,116.157 C83.536,117.482 81.008,117.963 79.498,117.131 C79.497,117.131 79.497,117.131 79.496,117.13 L78.577,116.625 L75.128,114.724 C74.879,114.587 74.714,114.459 74.613,114.365 C74.71,114.264 74.868,114.126 75.109,113.979 L98.356,99.634 L84.639,116.157 Z M43.856,119.589 C41.522,119.589 38.039,117.954 36.547,116.155 L30.208,108.508 C29.796,108.01 29.621,107.47 29.715,106.988 C29.811,106.504 30.176,106.071 30.745,105.766 L34.963,103.506 C35.878,103.016 37.217,102.735 38.636,102.735 C40.079,102.735 41.494,103.04 42.418,103.548 L71.559,119.589 L43.856,119.589 Z M12.925,87.652 L32.139,97.96 C32.226,98.007 32.305,98.054 32.372,98.098 C32.305,98.141 32.227,98.186 32.139,98.233 L27.92,100.493 C27.404,100.769 26.772,100.917 26.093,100.917 C24.77,100.916 23.447,100.35 22.721,99.476 L12.925,87.652 Z M6.779,74.888 L19.463,57.979 C20.479,56.625 22.925,56.058 24.438,56.834 L35.03,62.283 C35.087,62.313 35.14,62.34 35.187,62.369 C35.14,62.398 35.087,62.427 35.03,62.458 L10.638,75.605 C9.237,76.36 7.449,76.847 6.08,76.847 C5.978,76.847 5.888,76.845 5.809,76.84 C5.91,76.382 6.187,75.677 6.779,74.888 L6.779,74.888 Z M26.503,48.592 L36.177,35.698 C36.855,34.794 38.117,34.211 39.394,34.211 C40.012,34.211 40.593,34.348 41.079,34.606 L49.814,39.254 C49.815,39.255 49.816,39.256 49.818,39.256 L63.855,46.728 C63.867,46.734 63.881,46.739 63.893,46.745 C63.967,46.785 64.034,46.823 64.093,46.859 C64.029,46.899 63.957,46.941 63.875,46.986 L45.373,56.9 C44.42,57.411 42.967,57.714 41.482,57.714 C40.048,57.714 38.694,57.441 37.766,56.964 L27.175,51.514 C26.583,51.21 26.192,50.755 26.072,50.231 C25.95,49.706 26.103,49.125 26.503,48.592 L26.503,48.592 Z M43.29,26.463 C49.804,18.225 57.864,8.819 60.772,6.435 C62.523,7.672 66.239,11.478 69.436,15.372 C69.848,15.871 70.019,16.414 69.922,16.898 C69.826,17.384 69.457,17.819 68.886,18.123 L48.465,28.98 C46.618,29.533 44.167,29.475 43.079,28.895 C42.831,28.763 42.703,28.598 42.649,28.342 C42.564,27.933 42.686,27.225 43.29,26.463 L43.29,26.463 Z M83.541,33.75 C83.946,34.289 84.101,34.889 83.979,35.438 C83.858,35.987 83.464,36.465 82.87,36.784 L74.195,41.436 C72.333,42.436 68.573,42.444 66.691,41.458 C66.688,41.457 66.686,41.455 66.684,41.454 L52.618,33.97 C52.537,33.925 52.461,33.882 52.399,33.843 C52.465,33.802 52.541,33.757 52.627,33.71 L71.724,23.424 C73.199,22.625 75.597,23.161 76.598,24.496 L83.541,33.75 Z M104.361,61.504 L98.749,58.518 C98.741,58.513 98.736,58.509 98.728,58.504 L77.041,46.965 C77.031,46.959 77.018,46.957 77.006,46.951 C76.932,46.91 76.863,46.871 76.803,46.833 C76.867,46.793 76.939,46.751 77.021,46.708 L85.697,42.055 C87.18,41.263 89.578,41.799 90.58,43.134 L104.361,61.504 Z M74.073,74.481 C72.64,74.481 71.287,74.209 70.359,73.73 L48.199,62.334 C48.146,62.307 48.098,62.28 48.052,62.254 C48.097,62.229 48.146,62.201 48.198,62.172 L66.701,52.256 C68.564,51.258 72.324,51.252 74.206,52.235 C74.208,52.237 74.21,52.239 74.213,52.241 L95.97,63.815 C96.029,63.847 96.089,63.88 96.138,63.912 C96.075,63.952 96.001,63.996 95.918,64.04 L77.963,73.666 C77.011,74.176 75.557,74.481 74.073,74.481 L74.073,74.481 Z M95.835,93.562 C96.021,93.659 96.161,93.75 96.264,93.827 C96.168,93.912 96.035,94.014 95.856,94.125 L71.966,108.886 C70.235,109.957 66.63,110.044 64.85,109.065 L45.304,98.308 C45.193,98.247 45.098,98.189 45.02,98.134 C45.099,98.082 45.194,98.023 45.306,97.963 L70.449,84.483 C72.32,83.481 76.165,83.449 78.052,84.415 C78.055,84.416 78.056,84.417 78.057,84.417 L85.911,88.456 L95.835,93.562 Z M13.455,81.147 C13.372,81.103 13.294,81.057 13.23,81.016 C13.301,80.97 13.382,80.92 13.476,80.872 L37.868,67.724 C39.737,66.716 43.577,66.679 45.462,67.653 L67.623,79.049 C67.676,79.076 67.724,79.103 67.769,79.128 C67.725,79.154 67.676,79.182 67.623,79.21 L42.479,92.691 C40.61,93.695 36.833,93.693 34.966,92.69 L13.455,81.147 Z M119.954,72.324 C118.944,70.979 117.229,69.368 115.35,67.91 C115.345,66.195 114.194,64.644 113.683,63.962 L95.366,39.545 C94.04,37.779 92.086,36.549 89.897,36.002 C90.144,33.973 89.618,31.883 88.326,30.161 L81.383,20.907 C80.043,19.12 78.065,17.876 75.847,17.342 C76.041,15.322 75.441,13.258 74.06,11.577 C64.678,0.148 61.603,0.148 60.593,0.148 C59.153,0.148 56.473,0.148 38.598,22.753 C37.202,24.517 36.572,26.595 36.711,28.593 C34.581,29.161 32.687,30.38 31.392,32.109 L21.718,45.004 C20.428,46.725 19.907,48.802 20.157,50.813 C17.959,51.373 16.008,52.619 14.678,54.39 L1.994,71.298 C0.187,73.709 -0.567,76.372 -0.074,78.604 C0.034,79.093 0.221,79.537 0.44,79.956 C0.322,81.784 1.658,83.429 2.307,84.211 L18.116,103.292 C19.517,104.983 21.542,106.162 23.783,106.649 C23.622,108.644 24.233,110.672 25.603,112.326 L31.942,119.973 C34.59,123.165 39.711,125.571 43.856,125.571 L77.325,125.571 C80.389,125.571 81.811,124.547 82.463,123.43 C85.129,123.147 87.612,121.939 89.242,119.976 L104.388,101.733 C105.526,100.363 107.229,97.946 107.455,95.656 C109.168,95.042 110.712,94.063 111.834,92.708 L118.874,84.212 C121.819,80.66 122.292,75.438 119.954,72.324 L119.954,72.324 Z" id="Fill-278" fill="#1B8EBA"></path>
                <path d="M37.8677,67.7241 L13.4757,80.8711 C13.3827,80.9201 13.3007,80.9701 13.2307,81.0161 C13.2947,81.0571 13.3717,81.1031 13.4547,81.1471 L34.9657,92.6901 C36.8337,93.6931 40.6097,93.6951 42.4797,92.6911 L67.6227,79.2101 C67.6757,79.1821 67.7247,79.1541 67.7687,79.1281 C67.7237,79.1031 67.6757,79.0761 67.6227,79.0491 L45.4627,67.6531 C43.5767,66.6791 39.7367,66.7161 37.8677,67.7241" id="Fill-280" fill="#A9C7DB"></path>
                <path d="M19.4634,57.979 L6.7794,74.888 C6.1874,75.677 5.9104,76.382 5.8084,76.84 C5.8884,76.845 5.9784,76.847 6.0794,76.847 C7.4484,76.847 9.2374,76.36 10.6384,75.605 L35.0304,62.458 C35.0874,62.427 35.1404,62.398 35.1874,62.369 C35.1404,62.34 35.0874,62.313 35.0304,62.283 L24.4384,56.833 C22.9244,56.058 20.4794,56.625 19.4634,57.979" id="Fill-282" fill="#A9C7DB"></path>
                <path d="M26.0933,100.9165 C26.7723,100.9165 27.4043,100.7695 27.9203,100.4925 L32.1383,98.2325 C32.2273,98.1865 32.3043,98.1415 32.3723,98.0985 C32.3043,98.0545 32.2263,98.0075 32.1383,97.9605 L12.9253,87.6515 L22.7213,99.4765 C23.4473,100.3505 24.7703,100.9155 26.0933,100.9165" id="Fill-284" fill="#A9C7DB"></path>
                <path d="M39.3936,34.2114 C38.1166,34.2114 36.8546,34.7944 36.1776,35.6974 L26.5026,48.5924 C26.1036,49.1244 25.9506,49.7054 26.0716,50.2314 C26.1926,50.7554 26.5836,51.2104 27.1746,51.5144 L37.7666,56.9644 C38.6936,57.4404 40.0476,57.7144 41.4826,57.7144 C42.9676,57.7144 44.4206,57.4104 45.3726,56.8994 L63.8746,46.9854 C63.9566,46.9404 64.0296,46.8994 64.0926,46.8584 C64.0346,46.8224 63.9666,46.7844 63.8926,46.7444 C63.8816,46.7384 63.8676,46.7334 63.8556,46.7284 L49.8176,39.2564 C49.8166,39.2564 49.8156,39.2554 49.8146,39.2544 L41.0796,34.6064 C40.5936,34.3484 40.0116,34.2114 39.3936,34.2114" id="Fill-286" fill="#A9C7DB"></path>
                <path d="M36.5474,116.1548 C38.0384,117.9538 41.5224,119.5898 43.8564,119.5898 L71.5594,119.5898 L42.4184,103.5488 C41.4944,103.0398 40.0794,102.7348 38.6364,102.7348 C37.2164,102.7348 35.8784,103.0158 34.9634,103.5068 L30.7444,105.7658 C30.1754,106.0708 29.8104,106.5048 29.7154,106.9878 C29.6214,107.4698 29.7964,108.0098 30.2084,108.5088 L36.5474,116.1548 Z" id="Fill-288" fill="#A9C7DB"></path>
                <path d="M60.7725,6.4351 C57.8635,8.8191 49.8035,18.2251 43.2895,26.4631 C42.6865,27.2251 42.5645,27.9331 42.6495,28.3421 C42.7035,28.5981 42.8315,28.7631 43.0795,28.8951 C44.1675,29.4751 46.6175,29.5331 48.4655,28.9801 L68.8865,18.1231 C69.4575,17.8191 69.8255,17.3841 69.9225,16.8981 C70.0195,16.4141 69.8475,15.8711 69.4365,15.3721 C66.2385,11.4781 62.5235,7.6721 60.7725,6.4351" id="Fill-290" fill="#A9C7DB"></path>
            </g>
        </g>
    </g>
</svg>